<svg xmlns="http://www.w3.org/2000/svg" width="720" height="480" viewBox="0 0 720 480">
  <rect width="720" height="480" fill="#f8fafc"/>
  <rect x="20" y="20" width="680" height="440" rx="18" fill="#ffffff" stroke="#cbd5e1" stroke-width="2"/>
  <text x="44" y="64" font-family="Arial, Helvetica, sans-serif" font-size="28" font-weight="700" fill="#0f172a">Line chart tracking</text>
  <line x1="82" y1="365" x2="650" y2="365" stroke="#334155" stroke-width="3"/>
      <line x1="82" y1="120" x2="82" y2="365" stroke="#334155" stroke-width="3"/>
      <text x="125" y="397" text-anchor="middle" font-family="Arial" font-size="16" fill="#334155">Jul</text><text x="240" y="397" text-anchor="middle" font-family="Arial" font-size="16" fill="#334155">Aug</text><text x="355" y="397" text-anchor="middle" font-family="Arial" font-size="16" fill="#334155">Sep</text><text x="470" y="397" text-anchor="middle" font-family="Arial" font-size="16" fill="#334155">Oct</text><text x="585" y="397" text-anchor="middle" font-family="Arial" font-size="16" fill="#334155">Nov</text>
      <polyline points="125,310 240,250 355,215 470,190 585,140" fill="none" stroke="#2563eb" stroke-width="5"/>
      <polyline points="125,210 240,185 355,195 470,245 585,285" fill="none" stroke="#f97316" stroke-width="5"/>
      <polyline points="125,330 240,275 355,210 470,170 585,125" fill="none" stroke="#16a34a" stroke-width="5"/>
      <text x="500" y="128" font-family="Arial" font-size="16" fill="#2563eb">Alpha Nov: 92</text>
      <text x="500" y="180" font-family="Arial" font-size="16" fill="#16a34a">Gamma crosses Beta in Sep</text>
      <text x="500" y="305" font-family="Arial" font-size="16" fill="#f97316">Beta</text>
</svg>