<svg xmlns="http://www.w3.org/2000/svg" width="720" height="480" viewBox="0 0 720 480">
  <rect width="720" height="480" fill="#f8fafc"/>
  <rect x="20" y="20" width="680" height="440" rx="18" fill="#ffffff" stroke="#cbd5e1" stroke-width="2"/>
  <text x="44" y="64" font-family="Arial, Helvetica, sans-serif" font-size="28" font-weight="700" fill="#0f172a">Grid patterns</text>
  <circle cx="135" cy="130" r="12" fill="#0f172a"/><circle cx="197" cy="130" r="12" fill="#0f172a"/><circle cx="259" cy="130" r="12" fill="#0f172a"/><circle cx="321" cy="130" r="12" fill="#0f172a"/><circle cx="383" cy="130" r="12" fill="#0f172a"/><circle cx="445" cy="130" r="12" fill="#0f172a"/><circle cx="507" cy="130" r="12" fill="#0f172a"/><circle cx="569" cy="130" r="12" fill="#0f172a"/><circle cx="135" cy="180" r="12" fill="#0f172a"/><circle cx="197" cy="180" r="12" fill="#0f172a"/><circle cx="259" cy="180" r="12" fill="#0f172a"/><circle cx="321" cy="180" r="12" fill="#0f172a"/><circle cx="383" cy="180" r="12" fill="#0f172a"/><circle cx="445" cy="180" r="12" fill="#0f172a"/><circle cx="507" cy="180" r="12" fill="#0f172a"/><circle cx="569" cy="180" r="12" fill="#0f172a"/><circle cx="135" cy="230" r="12" fill="#0f172a"/><circle cx="197" cy="230" r="12" fill="#0f172a"/><circle cx="259" cy="230" r="12" fill="none" stroke="#ef4444" stroke-width="3" stroke-dasharray="4 4"/><circle cx="321" cy="230" r="12" fill="#0f172a"/><circle cx="383" cy="230" r="12" fill="#0f172a"/><circle cx="445" cy="230" r="12" fill="#0f172a"/><circle cx="507" cy="230" r="12" fill="#0f172a"/><circle cx="569" cy="230" r="12" fill="#0f172a"/><circle cx="135" cy="280" r="12" fill="#0f172a"/><circle cx="197" cy="280" r="12" fill="#0f172a"/><circle cx="259" cy="280" r="12" fill="none" stroke="#ef4444" stroke-width="3" stroke-dasharray="4 4"/><circle cx="321" cy="280" r="12" fill="#0f172a"/><circle cx="383" cy="280" r="12" fill="#0f172a"/><circle cx="445" cy="280" r="12" fill="#0f172a"/><circle cx="507" cy="280" r="12" fill="#0f172a"/><circle cx="569" cy="280" r="12" fill="#0f172a"/><circle cx="135" cy="330" r="12" fill="#0f172a"/><circle cx="197" cy="330" r="12" fill="#0f172a"/><circle cx="259" cy="330" r="12" fill="none" stroke="#ef4444" stroke-width="3" stroke-dasharray="4 4"/><circle cx="321" cy="330" r="12" fill="none" stroke="#ef4444" stroke-width="3" stroke-dasharray="4 4"/><circle cx="383" cy="330" r="12" fill="none" stroke="#ef4444" stroke-width="3" stroke-dasharray="4 4"/><circle cx="445" cy="330" r="12" fill="none" stroke="#ef4444" stroke-width="3" stroke-dasharray="4 4"/><circle cx="507" cy="330" r="12" fill="#0f172a"/><circle cx="569" cy="330" r="12" fill="#0f172a"/><circle cx="135" cy="380" r="12" fill="#0f172a"/><circle cx="197" cy="380" r="12" fill="#0f172a"/><circle cx="259" cy="380" r="12" fill="#0f172a"/><circle cx="321" cy="380" r="12" fill="#0f172a"/><circle cx="383" cy="380" r="12" fill="#0f172a"/><circle cx="445" cy="380" r="12" fill="#0f172a"/><circle cx="507" cy="380" r="12" fill="#0f172a"/><circle cx="569" cy="380" r="12" fill="#0f172a"/>
      <text x="60" y="430" font-family="Arial" font-size="18" fill="#475569">Missing dots form an L shape.</text>
</svg>