<svg xmlns="http://www.w3.org/2000/svg" width="720" height="480" viewBox="0 0 720 480">
  <rect width="720" height="480" fill="#f8fafc"/>
  <rect x="20" y="20" width="680" height="440" rx="18" fill="#ffffff" stroke="#cbd5e1" stroke-width="2"/>
  <text x="44" y="64" font-family="Arial, Helvetica, sans-serif" font-size="28" font-weight="700" fill="#0f172a">Academic table</text>
  <text x="70" y="116" font-family="Arial" font-size="18" fill="#334155">Benchmark accuracy by task</text>
      <rect x="70" y="140" width="580" height="230" fill="#ffffff" stroke="#0f172a" stroke-width="2"/>
      <line x1="70" y1="185" x2="650" y2="185" stroke="#cbd5e1"/><line x1="70" y1="231" x2="650" y2="231" stroke="#cbd5e1"/><line x1="70" y1="277" x2="650" y2="277" stroke="#cbd5e1"/><line x1="70" y1="323" x2="650" y2="323" stroke="#cbd5e1"/>
      <line x1="215" y1="140" x2="215" y2="370" stroke="#cbd5e1"/><line x1="360" y1="140" x2="360" y2="370" stroke="#cbd5e1"/><line x1="505" y1="140" x2="505" y2="370" stroke="#cbd5e1"/><line x1="650" y1="140" x2="650" y2="370" stroke="#cbd5e1"/>
      <text x="142" y="170" text-anchor="middle" font-family="Arial" font-size="18" font-weight="700">Model</text><text x="287" y="170" text-anchor="middle" font-family="Arial" font-size="18" font-weight="700">Task 1</text><text x="432" y="170" text-anchor="middle" font-family="Arial" font-size="18" font-weight="700">Task 2</text><text x="577" y="170" text-anchor="middle" font-family="Arial" font-size="18" font-weight="700">Task 3</text>
      <text x="142" y="216" text-anchor="middle" font-family="Arial" font-size="18">BERT</text><text x="287" y="216" text-anchor="middle" font-family="Arial" font-size="18">83.4</text><text x="432" y="216" text-anchor="middle" font-family="Arial" font-size="18">78.2</text><text x="577" y="216" text-anchor="middle" font-family="Arial" font-size="18">91.6</text><text x="142" y="262" text-anchor="middle" font-family="Arial" font-size="18">RoBERTa</text><text x="287" y="262" text-anchor="middle" font-family="Arial" font-size="18">84.1</text><text x="432" y="262" text-anchor="middle" font-family="Arial" font-size="18">81.9†</text><text x="577" y="262" text-anchor="middle" font-family="Arial" font-size="18">90.8</text><text x="142" y="308" text-anchor="middle" font-family="Arial" font-size="18">GPT-small</text><text x="287" y="308" text-anchor="middle" font-family="Arial" font-size="18">79.5</text><text x="432" y="308" text-anchor="middle" font-family="Arial" font-size="18">76.0</text><text x="577" y="308" text-anchor="middle" font-family="Arial" font-size="18">88.3</text><text x="142" y="354" text-anchor="middle" font-family="Arial" font-size="18">Human</text><text x="287" y="354" text-anchor="middle" font-family="Arial" font-size="18">92.0</text><text x="432" y="354" text-anchor="middle" font-family="Arial" font-size="18">90.5</text><text x="577" y="354" text-anchor="middle" font-family="Arial" font-size="18">96.2</text>
      <text x="78" y="415" font-family="Arial" font-size="16" fill="#475569">† score measured with extra validation data.</text>
</svg>