<svg xmlns="http://www.w3.org/2000/svg" width="720" height="480" viewBox="0 0 720 480">
  <rect width="720" height="480" fill="#f8fafc"/>
  <rect x="20" y="20" width="680" height="440" rx="18" fill="#ffffff" stroke="#cbd5e1" stroke-width="2"/>
  <text x="44" y="64" font-family="Arial, Helvetica, sans-serif" font-size="28" font-weight="700" fill="#0f172a">Circuit board</text>
  <rect x="78" y="112" width="560" height="300" rx="18" fill="#166534" stroke="#052e16" stroke-width="6"/>
      <rect x="295" y="190" width="130" height="92" rx="8" fill="#111827" stroke="#020617" stroke-width="3"/>
      <text x="360" y="232" text-anchor="middle" font-family="Arial" font-size="18" font-weight="700" fill="#e5e7eb">STM32F103</text>
      <text x="360" y="256" text-anchor="middle" font-family="Arial" font-size="13" fill="#cbd5e1">MAIN IC</text>
      <circle cx="135" cy="180" r="20" fill="#fde68a" stroke="#422006" stroke-width="3"/><text x="135" y="186" text-anchor="middle" font-family="Arial" font-size="12" font-weight="700">C1</text><circle cx="190" cy="290" r="20" fill="#fde68a" stroke="#422006" stroke-width="3"/><text x="190" y="296" text-anchor="middle" font-family="Arial" font-size="12" font-weight="700">C2</text><circle cx="500" cy="180" r="20" fill="#fde68a" stroke="#422006" stroke-width="3"/><text x="500" y="186" text-anchor="middle" font-family="Arial" font-size="12" font-weight="700">C3</text><circle cx="555" cy="290" r="20" fill="#fde68a" stroke="#422006" stroke-width="3"/><text x="555" y="296" text-anchor="middle" font-family="Arial" font-size="12" font-weight="700">C4</text>
      <rect x="90" y="245" width="78" height="54" rx="8" fill="#cbd5e1" stroke="#475569" stroke-width="3"/>
      <text x="129" y="278" text-anchor="middle" font-family="Arial" font-size="16" font-weight="700" fill="#0f172a">USB-C</text>
      <path d="M168 272 C220 272 240 236 295 236" fill="none" stroke="#facc15" stroke-width="5"/>
      <path d="M425 236 C475 236 500 210 555 210" fill="none" stroke="#38bdf8" stroke-width="5"/>
      <text x="96" y="360" font-family="Arial" font-size="17" fill="#dcfce7">Label near USB: DEBUG-5V</text>
</svg>