<svg xmlns="http://www.w3.org/2000/svg" width="720" height="480" viewBox="0 0 720 480">
  <rect width="720" height="480" fill="#f8fafc"/>
  <rect x="20" y="20" width="680" height="440" rx="18" fill="#ffffff" stroke="#cbd5e1" stroke-width="2"/>
  <text x="44" y="64" font-family="Arial, Helvetica, sans-serif" font-size="28" font-weight="700" fill="#0f172a">Technical diagram</text>
  <rect x="295" y="135" width="130" height="185" fill="#f8fafc" stroke="#0f172a" stroke-width="3"/>
      <text x="360" y="230" text-anchor="middle" font-family="Arial" font-size="22" font-weight="700">U1</text>
      <line x1="265" y1="155" x2="295" y2="155" stroke="#0f172a" stroke-width="2"/><text x="252" y="161" text-anchor="end" font-family="Arial" font-size="14">1</text>
                <line x1="425" y1="155" x2="455" y2="155" stroke="#0f172a" stroke-width="2"/><text x="468" y="161" font-family="Arial" font-size="14">16</text><line x1="265" y1="176" x2="295" y2="176" stroke="#0f172a" stroke-width="2"/><text x="252" y="182" text-anchor="end" font-family="Arial" font-size="14">2</text>
                <line x1="425" y1="176" x2="455" y2="176" stroke="#0f172a" stroke-width="2"/><text x="468" y="182" font-family="Arial" font-size="14">15</text><line x1="265" y1="197" x2="295" y2="197" stroke="#0f172a" stroke-width="2"/><text x="252" y="203" text-anchor="end" font-family="Arial" font-size="14">3</text>
                <line x1="425" y1="197" x2="455" y2="197" stroke="#0f172a" stroke-width="2"/><text x="468" y="203" font-family="Arial" font-size="14">14</text><line x1="265" y1="218" x2="295" y2="218" stroke="#0f172a" stroke-width="2"/><text x="252" y="224" text-anchor="end" font-family="Arial" font-size="14">4</text>
                <line x1="425" y1="218" x2="455" y2="218" stroke="#0f172a" stroke-width="2"/><text x="468" y="224" font-family="Arial" font-size="14">13</text><line x1="265" y1="239" x2="295" y2="239" stroke="#0f172a" stroke-width="2"/><text x="252" y="245" text-anchor="end" font-family="Arial" font-size="14">5</text>
                <line x1="425" y1="239" x2="455" y2="239" stroke="#0f172a" stroke-width="2"/><text x="468" y="245" font-family="Arial" font-size="14">12</text><line x1="265" y1="260" x2="295" y2="260" stroke="#0f172a" stroke-width="2"/><text x="252" y="266" text-anchor="end" font-family="Arial" font-size="14">6</text>
                <line x1="425" y1="260" x2="455" y2="260" stroke="#0f172a" stroke-width="2"/><text x="468" y="266" font-family="Arial" font-size="14">11</text><line x1="265" y1="281" x2="295" y2="281" stroke="#0f172a" stroke-width="2"/><text x="252" y="287" text-anchor="end" font-family="Arial" font-size="14">7</text>
                <line x1="425" y1="281" x2="455" y2="281" stroke="#0f172a" stroke-width="2"/><text x="468" y="287" font-family="Arial" font-size="14">10</text><line x1="265" y1="302" x2="295" y2="302" stroke="#0f172a" stroke-width="2"/><text x="252" y="308" text-anchor="end" font-family="Arial" font-size="14">8</text>
                <line x1="425" y1="302" x2="455" y2="302" stroke="#0f172a" stroke-width="2"/><text x="468" y="308" font-family="Arial" font-size="14">9</text>
      <polyline points="455,281 515,281 515,330" fill="none" stroke="#0f172a" stroke-width="3"/>
      <rect x="492" y="330" width="46" height="22" fill="#fff" stroke="#0f172a" stroke-width="2"/><text x="515" y="370" text-anchor="middle" font-family="Arial" font-size="18">R3 10k</text>
      <line x1="515" y1="352" x2="515" y2="400" stroke="#0f172a" stroke-width="3"/>
      <line x1="490" y1="400" x2="540" y2="400" stroke="#0f172a" stroke-width="3"/><line x1="500" y1="413" x2="530" y2="413" stroke="#0f172a" stroke-width="3"/><line x1="510" y1="426" x2="520" y2="426" stroke="#0f172a" stroke-width="3"/>
      <text x="75" y="420" font-family="Arial" font-size="18" fill="#475569">Pin 7 connects to R3, then to ground.</text>
</svg>