<svg xmlns="http://www.w3.org/2000/svg" width="720" height="480" viewBox="0 0 720 480">
  <rect width="720" height="480" fill="#f8fafc"/>
  <rect x="20" y="20" width="680" height="440" rx="18" fill="#ffffff" stroke="#cbd5e1" stroke-width="2"/>
  <text x="44" y="64" font-family="Arial, Helvetica, sans-serif" font-size="28" font-weight="700" fill="#0f172a">Table precision</text>
  <rect x="82" y="115" width="560" height="260" fill="#ffffff" stroke="#0f172a" stroke-width="2"/>
      <line x1="82" y1="167" x2="642" y2="167" stroke="#cbd5e1" stroke-width="2"/><line x1="82" y1="219" x2="642" y2="219" stroke="#cbd5e1" stroke-width="2"/><line x1="82" y1="271" x2="642" y2="271" stroke="#cbd5e1" stroke-width="2"/><line x1="82" y1="323" x2="642" y2="323" stroke="#cbd5e1" stroke-width="2"/><line x1="82" y1="375" x2="642" y2="375" stroke="#cbd5e1" stroke-width="2"/>
      <line x1="222" y1="115" x2="222" y2="375" stroke="#cbd5e1" stroke-width="2"/><line x1="362" y1="115" x2="362" y2="375" stroke="#cbd5e1" stroke-width="2"/><line x1="502" y1="115" x2="502" y2="375" stroke="#cbd5e1" stroke-width="2"/><line x1="642" y1="115" x2="642" y2="375" stroke="#cbd5e1" stroke-width="2"/>
      <text x="152" y="150" text-anchor="middle" font-family="Arial" font-size="22" font-weight="700">Row</text><text x="292" y="150" text-anchor="middle" font-family="Arial" font-size="22" font-weight="700">A</text><text x="432" y="150" text-anchor="middle" font-family="Arial" font-size="22" font-weight="700">B</text><text x="572" y="150" text-anchor="middle" font-family="Arial" font-size="22" font-weight="700">C</text>
      <text x="152" y="202" text-anchor="middle" font-family="Arial" font-size="21" fill="#0f172a">1</text><text x="292" y="202" text-anchor="middle" font-family="Arial" font-size="21" fill="#0f172a">48.73</text><text x="432" y="202" text-anchor="middle" font-family="Arial" font-size="21" fill="#0f172a">32.10</text><text x="572" y="202" text-anchor="middle" font-family="Arial" font-size="21" fill="#0f172a">47.38</text><text x="152" y="254" text-anchor="middle" font-family="Arial" font-size="21" fill="#0f172a">2</text><text x="292" y="254" text-anchor="middle" font-family="Arial" font-size="21" fill="#dc2626">47.83</text><text x="432" y="254" text-anchor="middle" font-family="Arial" font-size="21" fill="#0f172a">12.44</text><text x="572" y="254" text-anchor="middle" font-family="Arial" font-size="21" fill="#0f172a">48.37</text><text x="152" y="306" text-anchor="middle" font-family="Arial" font-size="21" fill="#0f172a">3</text><text x="292" y="306" text-anchor="middle" font-family="Arial" font-size="21" fill="#0f172a">38.47</text><text x="432" y="306" text-anchor="middle" font-family="Arial" font-size="21" fill="#0f172a">59.29</text><text x="572" y="306" text-anchor="middle" font-family="Arial" font-size="21" fill="#dc2626">47.83</text><text x="152" y="358" text-anchor="middle" font-family="Arial" font-size="21" fill="#0f172a">4</text><text x="292" y="358" text-anchor="middle" font-family="Arial" font-size="21" fill="#0f172a">83.47</text><text x="432" y="358" text-anchor="middle" font-family="Arial" font-size="21" fill="#0f172a">40.01</text><text x="572" y="358" text-anchor="middle" font-family="Arial" font-size="21" fill="#0f172a">74.38</text>
</svg>