<svg xmlns="http://www.w3.org/2000/svg" width="720" height="480" viewBox="0 0 720 480">
  <rect width="720" height="480" fill="#f8fafc"/>
  <rect x="20" y="20" width="680" height="440" rx="18" fill="#ffffff" stroke="#cbd5e1" stroke-width="2"/>
  <text x="44" y="64" font-family="Arial, Helvetica, sans-serif" font-size="28" font-weight="700" fill="#0f172a">Spatial relationships</text>
  <line x1="170" y1="118" x2="170" y2="392" stroke="#cbd5e1" stroke-width="2"/><line x1="320" y1="118" x2="320" y2="392" stroke="#cbd5e1" stroke-width="2"/><line x1="470" y1="118" x2="470" y2="392" stroke="#cbd5e1" stroke-width="2"/>
      <line x1="90" y1="150" x2="625" y2="150" stroke="#cbd5e1" stroke-width="2"/><line x1="90" y1="255" x2="625" y2="255" stroke="#cbd5e1" stroke-width="2"/><line x1="90" y1="360" x2="625" y2="360" stroke="#cbd5e1" stroke-width="2"/>
      <circle cx="170" cy="150" r="30" fill="#38bdf8" stroke="#0f172a" stroke-width="3"/><text x="170" y="157" text-anchor="middle" font-family="Arial" font-size="24" font-weight="700">A</text>
      <rect x="320" y="120" width="60" height="60" fill="#f97316" stroke="#0f172a" stroke-width="3"/><text x="350" y="158" text-anchor="middle" font-family="Arial" font-size="24" font-weight="700">B</text>
      <polygon points="515,116 555,184 475,184" fill="#22c55e" stroke="#0f172a" stroke-width="3"/><text x="515" y="166" text-anchor="middle" font-family="Arial" font-size="24" font-weight="700">C</text>
      <polygon points="170,225 206,255 170,285 134,255" fill="#a855f7" stroke="#0f172a" stroke-width="3"/><text x="170" y="263" text-anchor="middle" font-family="Arial" font-size="24" font-weight="700">D</text>
      <circle cx="350" cy="255" r="30" fill="#eab308" stroke="#0f172a" stroke-width="3"/><text x="350" y="263" text-anchor="middle" font-family="Arial" font-size="24" font-weight="700">E</text>
      <rect x="485" y="330" width="60" height="60" rx="10" fill="#ef4444" stroke="#0f172a" stroke-width="3"/><text x="515" y="368" text-anchor="middle" font-family="Arial" font-size="24" font-weight="700">F</text>
</svg>